<svg width="270" height="112" viewBox="0 0 270 112" fill="none" xmlns="http://www.w3.org/2000/svg">
<mask id="path-1-outside-1_15_18481" maskUnits="userSpaceOnUse" x="0" y="0" width="270" height="112" fill="black">
<rect fill="white" width="270" height="112"/>
<path d="M37.1673 58.6118C40.867 58.6118 44.9968 58.4392 49.5568 58.0939C54.1599 57.7487 58.5478 57.123 62.7207 56.2168C66.9365 55.2675 70.7437 54.0808 74.1423 52.6567C77.5408 51.2327 79.9498 49.9381 81.3695 48.773C82.7891 47.5647 83.9291 46.227 84.7895 44.7598C85.6499 43.2926 86.2091 42.559 86.4672 42.559C86.8114 42.559 86.9404 43.0553 86.8544 44.0478C86.6823 45.4287 86.1231 47.2842 85.1766 49.6145C83.9291 52.592 82.6815 54.9654 81.434 56.7346C80.2294 58.5039 78.7453 60.0142 76.9815 61.2657C74.4864 62.9486 71.6686 64.5021 68.5283 65.9261C65.775 67.0481 62.7637 68.0622 59.4942 68.9684C54.504 70.263 49.5783 71.2123 44.7172 71.8165C39.856 72.3775 35.1454 72.658 30.5854 72.658C25.2941 72.658 21.2503 72.4422 18.454 72.0107C13.851 71.2771 10.5815 69.8962 8.64567 67.868C6.88189 66.2714 6 64.1137 6 61.3951C6 60.3163 6.15057 58.7844 6.4517 56.7994C6.75283 54.8144 7.09699 52.8293 7.48416 50.8443C7.91435 48.8593 8.23699 47.5647 8.45209 46.9606C8.66718 46.3133 8.98983 45.9896 9.42002 45.9896C9.85021 45.9896 10.1083 46.378 10.1944 47.1548C10.3234 47.8884 10.4525 49.0751 10.5815 50.7149C10.7106 52.3547 11.9581 53.8434 14.3242 55.1811C18.9272 57.3819 26.5416 58.5255 37.1673 58.6118ZM32.1341 90.6275C32.1341 89.6781 32.93 87.6068 34.5217 84.4135C36.1564 81.2634 37.2104 79.6883 37.6836 79.6883C38.63 79.2999 40.0066 80.012 41.8134 81.8244C43.6202 83.6799 44.5881 85.1255 44.7172 86.1612C44.7172 87.5421 43.9644 89.5271 42.4587 92.1163C40.953 94.7054 39.856 96 39.1677 96C38.9096 95.8705 38.0062 95.288 36.4575 94.2523C34.9519 93.2598 33.8334 92.5046 33.102 91.9868C32.4567 91.5553 32.1341 91.1022 32.1341 90.6275Z"/>
<path d="M100.859 67.4691C99.3534 71.6549 97.9553 74.7403 96.6647 76.7254C95.3741 78.7104 94.3632 79.9402 93.6318 80.4149C92.9005 80.8896 91.8035 81.4074 90.3409 81.9684C88.8782 82.4862 86.6412 83.2414 83.6299 84.2339C80.6616 85.1833 78.8978 85.658 78.3385 85.658C77.9944 85.658 77.8223 85.5716 77.8223 85.399C77.4782 84.9244 79.2635 83.3709 83.1782 80.7386C87.0929 78.1062 89.6096 76.3801 90.7281 75.5602C91.8896 74.7403 93.0511 73.5536 94.2126 72.0002C95.4171 70.4035 96.299 68.6127 96.8583 66.6277C96.256 66.5413 95.6322 66.6708 94.9869 67.016C94.3847 67.3181 93.7824 67.4691 93.1801 67.4691C91.5884 67.426 90.2548 66.9081 89.1794 65.9156C88.1039 64.9231 87.6522 63.8227 87.8243 62.6145C87.9963 61.8809 88.2329 61.0394 88.5341 60.09C88.8782 59.0975 89.5665 57.544 90.599 55.4296C91.6314 53.3151 92.6639 51.5674 93.6964 50.1865C94.7718 48.8056 95.8258 48.1152 96.8583 48.1152C98.6221 48.1152 100.085 48.8703 101.246 50.3807C102.451 51.891 103.053 53.7034 103.053 55.8179C103.053 56.8967 102.988 57.9756 102.859 59.0544C102.73 60.09 102.58 60.9747 102.408 61.7083C102.279 62.3987 102.064 63.3049 101.762 64.4269C101.504 65.5057 101.203 66.5198 100.859 67.4691Z"/>
<path d="M100.214 62.7915C100.042 62.1873 99.9556 61.3027 99.9556 60.1376C99.9556 58.843 100.106 57.7858 100.407 56.9659C100.708 56.0597 101.268 55.2613 102.085 54.5709C103.763 53.2763 105.785 51.3776 108.151 48.8748C110.302 46.5014 111.528 44.9479 111.829 44.2143C110.194 43.3944 108.968 42.7471 108.151 42.2724C105.355 40.9347 103.139 40.2658 101.504 40.2658C100.085 40.2658 98.7296 41.021 97.439 42.5313C96.1054 44.0848 95.3096 44.7753 95.0515 44.6026C94.5352 44.4732 94.4062 44.0201 94.6643 43.2433C95.0084 42.3803 95.6968 41.1289 96.7292 39.4891C97.7617 37.8493 98.3854 36.8783 98.6005 36.5763C100.149 34.807 101.827 33.9224 103.634 33.9224C104.795 33.9224 106.645 34.4402 109.183 35.4759C111.678 36.5547 113.937 37.0941 115.959 37.0941C117.981 37.0941 119.809 36.3821 121.444 34.958C121.788 34.7423 122.153 34.656 122.541 34.6991C122.885 34.8717 120.057 35.1738 120.057 35.6053C120.057 35.9937 122.971 36.4036 122.799 36.8352C122.412 37.8708 122.089 38.7339 121.831 39.4243C121.616 40.0716 121.444 40.5679 121.315 40.9131C120.583 42.6392 119.981 43.7396 119.508 44.2143C118.733 44.3869 117.895 44.9263 116.991 45.8325L110.345 53.0821L103.505 60.526L101.698 62.662C101.569 62.7483 101.074 62.7915 100.214 62.7915ZM104.602 20.8934C104.602 19.944 105.398 17.8943 106.989 14.7441C108.624 11.5508 109.678 9.95418 110.151 9.95418C111.098 9.56581 112.474 10.2994 114.281 12.155C116.088 13.9674 117.056 15.3914 117.185 16.4271C117.185 17.808 116.432 19.793 114.926 22.3821C113.421 24.9713 112.324 26.2659 111.635 26.2659C111.377 26.1364 110.474 25.5754 108.925 24.5829C107.419 23.5473 106.301 22.7705 105.57 22.2527C104.924 21.8212 104.602 21.3681 104.602 20.8934Z"/>
<path d="M129.905 61.131C129.001 62.253 128.227 63.0513 127.582 63.526C126.721 64.1301 125.839 64.6264 124.936 65.0147C124.076 65.3599 123.108 65.6404 122.032 65.8562C121 66.1151 119.967 66.374 118.935 66.6329L114.676 67.6686C112.955 67.9707 111.901 68.0138 111.514 67.7981C111.514 67.1939 112.224 66.4388 113.644 65.5326C114.934 64.7127 116.246 63.8928 117.58 63.0729C118.913 62.2098 120.247 61.3683 121.581 60.5484C124.979 58.175 127.517 55.9527 129.195 53.8814C130.486 52.2847 131.496 50.8822 132.228 49.674C132.701 48.9835 133.411 47.7968 134.357 46.1139L137.132 40.4177C137.777 39.08 138.401 38.0012 139.003 37.1813C139.563 36.3614 140.079 35.973 140.552 36.0162C140.982 36.2319 141.111 36.6635 140.939 37.3107C140.466 38.7348 140.165 39.6626 140.036 40.0941C139.347 42.3812 139.003 43.9778 139.003 44.884C138.745 45.6608 138.573 46.157 138.487 46.3728C137.455 48.703 136.379 50.9038 135.261 52.9751C134.916 53.795 133.131 56.5137 129.905 61.131Z"/>
<path d="M133.389 51.5511C134.25 47.84 135.239 45.0998 136.358 43.3305C137.433 41.5613 138.315 40.5903 139.003 40.4177V43.2658C139.003 46.8906 139.971 49.4151 141.907 50.8391C143.069 51.6158 144.23 51.8748 145.392 51.6158C146.553 51.3569 147.435 50.7528 148.037 49.8034C148.683 48.8541 149.22 47.7537 149.651 46.5023C150.081 45.2077 150.489 44.5604 150.877 44.5604C151.35 44.5604 151.543 45.0135 151.457 45.9197C151.414 47.4732 150.92 49.9976 149.973 53.493C149.07 56.9883 147.822 59.858 146.23 62.1019C144.639 64.3459 142.703 65.5326 140.423 65.662C138.1 65.5757 136.293 64.2596 135.003 61.7136C133.841 59.2107 133.303 55.9743 133.389 52.0042V51.5511ZM126.885 100.108C126.885 99.5474 127.767 97.6055 129.53 94.2827C131.294 90.96 132.37 89.2986 132.757 89.2986C133.488 88.9966 134.542 89.5144 135.919 90.8521C137.338 92.233 138.414 93.4413 139.145 94.4769C140.006 93.0529 140.952 91.4563 141.984 89.687C143.06 87.9177 143.77 87.0331 144.114 87.0331C145.189 87.0331 146.458 87.8099 147.921 89.3633C149.427 90.96 150.223 92.4488 150.309 93.8296C150.309 95.4694 149.513 97.4113 147.921 99.6553C146.372 101.856 145.232 102.956 144.501 102.956C144.028 102.956 143.167 102.331 141.92 101.079C140.672 99.8279 139.575 98.8569 138.629 98.1665C136.306 102.87 134.456 105.222 133.08 105.222C132.735 105.222 132.241 104.941 131.595 104.38C130.993 103.863 130.068 103.086 128.821 102.05C127.53 101.015 126.885 100.367 126.885 100.108Z"/>
<path d="M175.677 52.1482C174.988 53.3133 174.515 54.1548 174.257 54.6726C173.526 55.8809 172.773 56.8518 171.999 57.5854C171.095 58.4916 169.912 59.2899 168.449 59.9804C165.309 61.4907 163.051 62.9579 161.674 64.382C160.771 65.2882 159.717 66.9495 158.512 69.3661C156.318 73.8108 154.167 76.7668 152.059 78.2339C149.951 79.7443 146.166 80.8231 140.702 81.4704C140.272 81.5567 139.756 81.5999 139.153 81.5999H137.669C136.895 81.5999 136.508 81.5135 136.508 81.3409C136.508 80.3484 137.82 79.0107 140.444 77.3277C142.509 76.0763 144.058 75.1485 145.09 74.5444C148.187 72.7751 150.467 71.3727 151.93 70.337C153.995 68.8267 155.35 67.3595 155.995 65.9355C158.146 61.5339 159.932 58.47 161.351 56.7439C162.943 54.8452 164.771 53.378 166.836 52.3424C170.149 50.4868 172.063 49.3864 172.579 49.0412L177.742 50.271L175.677 52.1482Z"/>
<path d="M179.29 48.1244C178.774 49.0306 178.215 49.9368 177.613 50.843C177.053 51.7061 176.472 52.5476 175.87 53.3675C175.268 54.1874 174.666 54.9425 174.063 55.633C173.504 56.2803 173.009 56.8197 172.579 57.2512C172.321 55.9135 172.149 54.5973 172.063 53.3027C171.977 52.0082 172.149 50.692 172.579 49.3543C173.225 48.9659 173.719 48.6207 174.063 48.3186C174.924 47.5419 176.838 44.9096 179.806 40.4217C179.462 40.0765 178.473 39.6018 176.838 38.9976C175.203 38.3504 173.655 37.9836 172.192 37.8973C170.859 37.8109 169.762 38.0699 168.901 38.674C167.998 39.235 167.202 40.0549 166.514 41.1337C165.782 42.1694 165.158 42.644 164.642 42.5577C164.47 42.4714 164.449 42.1262 164.578 41.5221C164.707 40.8748 164.9 40.2491 165.158 39.6449C166.234 37.1421 167.481 35.2865 168.901 34.0782C170.278 32.8268 171.934 32.2011 173.87 32.2011C175.289 32.2011 177.053 32.5463 179.161 33.2368C180.495 33.7115 181.635 33.9488 182.581 33.9488C184.56 33.9488 186.517 33.2368 188.453 31.8127C188.883 31.8127 189.034 32.0932 188.905 32.6542C188.776 33.2152 188.582 33.8841 188.324 34.6608C188.109 35.3944 187.959 35.8907 187.873 36.1496C187.442 37.4873 187.098 38.2641 186.84 38.4798C186.582 38.6956 185.829 39.2566 184.582 40.1628C183.893 40.6806 183.291 41.2847 182.775 41.9752C182.302 42.6225 181.807 43.4208 181.291 44.3701C180.774 45.2764 180.108 46.5278 179.29 48.1244ZM173.534 18.04C173.534 17.0907 174.33 15.0409 175.922 11.8908C177.556 8.69748 178.61 7.10083 179.083 7.10083C180.03 6.71245 181.407 7.44605 183.213 9.30161C185.02 11.114 185.988 12.5381 186.117 13.5737C186.117 14.9546 185.364 16.9396 183.859 19.5288C182.353 22.1179 181.256 23.4125 180.568 23.4125C180.31 23.2831 179.406 22.7221 177.857 21.7296C176.352 20.6939 175.233 19.9172 174.502 19.3993C173.857 18.9678 173.534 18.5147 173.534 18.04Z"/>
<path d="M177.274 88.5694C178.091 87.8358 179.102 87.1886 180.306 86.6276C181.296 86.1097 182.307 85.8724 183.339 85.9156C184.974 86.2176 186.351 86.3687 187.469 86.3687C188.846 86.455 190.05 86.2392 191.083 85.7214C192.072 85.2898 192.868 84.5562 193.47 83.5206C193.728 83.1322 193.986 82.7438 194.245 82.3555C194.546 81.9239 194.911 81.4061 195.342 80.802C195.815 80.1547 196.202 79.831 196.503 79.831C196.89 79.831 197.084 80.1763 197.084 80.8667C197.084 82.5065 196.116 85.2035 194.18 88.9578C193.148 91.1586 192.029 92.971 190.825 94.395C189.061 96.4232 187.039 97.8473 184.759 98.6672C184.157 98.9261 183.232 99.0555 181.984 99.0555C181.726 99.0555 180.909 98.9692 179.532 98.7966C178.543 98.624 177.747 98.5377 177.144 98.5377C175.295 98.5377 173.509 99.2713 171.789 100.738C171.444 101.084 170.821 101.602 169.917 102.292C169.358 102.767 168.885 102.961 168.498 102.875C168.067 102.702 168.089 101.947 168.562 100.609C169.035 99.4007 169.702 98.0846 170.563 96.6606C171.767 94.8913 172.929 93.3162 174.047 91.9353C175.037 90.6408 176.112 89.5188 177.274 88.5694ZM181.991 67.8615C181.991 66.9121 182.787 64.8624 184.378 61.7122C186.013 58.5189 187.067 56.9223 187.54 56.9223C188.487 56.5339 189.863 57.2675 191.67 59.1231C193.477 60.9355 194.445 62.3595 194.574 63.3952C194.574 64.7761 193.821 66.7611 192.315 69.3502C190.81 71.9394 189.713 73.234 189.024 73.234C188.766 73.1045 187.863 72.5435 186.314 71.551C184.808 70.5154 183.69 69.7386 182.959 69.2208C182.313 68.7892 181.991 68.3361 181.991 67.8615Z"/>
<path d="M207.473 74.7822C207.387 76.422 207.215 77.9107 206.957 79.2485C206.699 80.5431 206.354 81.665 205.924 82.6144C205.494 83.5206 204.935 84.211 204.246 84.6857C203.601 85.1172 202.805 85.2683 201.859 85.1388C201.902 81.7729 202.246 77.0908 202.891 71.0926C203.58 65.0513 204.591 58.3842 205.924 51.0914C206.613 48.9769 208.011 45.2442 210.119 39.8933C210.334 39.3755 210.549 39.1597 210.764 39.246C211.022 39.3323 211.151 39.5481 211.151 39.8933C211.022 42.5256 210.484 47.5529 209.538 54.9751C208.591 62.3974 208.011 67.4894 207.796 70.2512C207.58 73.0129 207.473 74.5233 207.473 74.7822Z"/>
<path d="M207.473 77.0477C207.473 79.8958 208.054 82.0318 209.215 83.4559C210.291 84.923 211.56 85.6566 213.022 85.6566C213.28 85.6135 213.711 84.5347 214.313 82.4202C214.958 80.3489 215.496 79.0974 215.926 78.6659C216.959 78.2775 217.819 78.7306 218.507 80.0252C219.153 81.4061 219.518 82.5281 219.604 83.3911C219.604 86.6276 218.916 89.8209 217.539 92.971C215.604 97.1137 213.001 99.185 209.731 99.185C207.882 99.185 206.29 98.4514 204.956 96.9842C203.623 95.517 202.784 93.8988 202.44 92.1295C202.096 90.274 201.923 87.9437 201.923 85.1388C201.923 83.9737 202.117 82.7438 202.504 81.4493C202.848 80.1547 203.3 78.9896 203.859 77.9539C204.419 76.9182 205.042 76.0983 205.731 75.4942C206.376 74.8901 206.957 74.6743 207.473 74.8469V77.0477Z"/>
<path d="M230.703 74.7822C230.617 76.422 230.445 77.9107 230.187 79.2485C229.929 80.5431 229.585 81.665 229.155 82.6144C228.724 83.5206 228.165 84.211 227.477 84.6857C226.832 85.1172 226.036 85.2683 225.089 85.1388C225.132 81.7729 225.476 77.0908 226.122 71.0926C226.81 65.0513 227.821 58.3842 229.155 51.0914C229.843 48.9769 231.241 45.2442 233.349 39.8933C233.564 39.3755 233.779 39.1597 233.994 39.246C234.252 39.3323 234.381 39.5481 234.381 39.8933C234.252 42.5256 233.715 47.5529 232.768 54.9751C231.822 62.3974 231.241 67.4894 231.026 70.2512C230.811 73.0129 230.703 74.5233 230.703 74.7822Z"/>
<path d="M230.703 74.8469C230.703 76.4004 230.725 77.5439 230.768 78.2775C230.768 79.3564 231.004 80.7372 231.478 82.4202C231.994 83.7579 232.854 84.8583 234.059 85.7214C235.22 86.5844 236.769 87.0159 238.705 87.0159C241.372 87.0159 243.48 86.2823 245.029 84.8152C247.094 82.8733 248.492 81.7513 249.223 81.4493C249.696 81.2335 250.234 81.1903 250.836 81.3198C251.481 81.4493 252.148 81.4924 252.837 81.4493C253.611 81.4493 254.342 80.5646 255.031 78.7954C255.719 77.0261 256.192 76.0768 256.45 75.9473C256.708 75.7747 257.009 75.7315 257.354 75.8178C258.343 76.1631 259.031 76.3357 259.418 76.3357C260.15 76.3357 260.795 75.8394 261.354 74.8469C261.569 74.5017 261.935 73.5955 262.451 72.1283C262.882 70.8769 263.226 70.2512 263.484 70.2512C263.828 70.2512 264 70.6395 264 71.4163C264 74.3507 263.161 77.1987 261.483 79.9605C259.72 82.7223 257.934 84.1031 256.128 84.1031C254.966 85.7861 254.299 86.7139 254.127 86.8865C252.966 88.2242 251.912 88.8931 250.965 88.8931C250.019 88.7205 249.223 88.6342 248.578 88.6342C247.975 88.6342 247.309 88.8068 246.577 89.152C245.717 89.4972 244.082 91.2665 241.673 94.4598C239.264 97.6099 236.661 99.185 233.865 99.185C230.811 99.185 228.574 97.8257 227.154 95.1071C225.821 92.4316 225.154 89.1304 225.154 85.2035C225.885 82.0102 226.681 79.4211 227.541 77.4361C228.359 75.3647 229.176 74.3291 229.993 74.3291C230.165 74.3291 230.402 74.5017 230.703 74.8469Z"/>
</mask>
<path d="M37.1673 58.6118C40.867 58.6118 44.9968 58.4392 49.5568 58.0939C54.1599 57.7487 58.5478 57.123 62.7207 56.2168C66.9365 55.2675 70.7437 54.0808 74.1423 52.6567C77.5408 51.2327 79.9498 49.9381 81.3695 48.773C82.7891 47.5647 83.9291 46.227 84.7895 44.7598C85.6499 43.2926 86.2091 42.559 86.4672 42.559C86.8114 42.559 86.9404 43.0553 86.8544 44.0478C86.6823 45.4287 86.1231 47.2842 85.1766 49.6145C83.9291 52.592 82.6815 54.9654 81.434 56.7346C80.2294 58.5039 78.7453 60.0142 76.9815 61.2657C74.4864 62.9486 71.6686 64.5021 68.5283 65.9261C65.775 67.0481 62.7637 68.0622 59.4942 68.9684C54.504 70.263 49.5783 71.2123 44.7172 71.8165C39.856 72.3775 35.1454 72.658 30.5854 72.658C25.2941 72.658 21.2503 72.4422 18.454 72.0107C13.851 71.2771 10.5815 69.8962 8.64567 67.868C6.88189 66.2714 6 64.1137 6 61.3951C6 60.3163 6.15057 58.7844 6.4517 56.7994C6.75283 54.8144 7.09699 52.8293 7.48416 50.8443C7.91435 48.8593 8.23699 47.5647 8.45209 46.9606C8.66718 46.3133 8.98983 45.9896 9.42002 45.9896C9.85021 45.9896 10.1083 46.378 10.1944 47.1548C10.3234 47.8884 10.4525 49.0751 10.5815 50.7149C10.7106 52.3547 11.9581 53.8434 14.3242 55.1811C18.9272 57.3819 26.5416 58.5255 37.1673 58.6118ZM32.1341 90.6275C32.1341 89.6781 32.93 87.6068 34.5217 84.4135C36.1564 81.2634 37.2104 79.6883 37.6836 79.6883C38.63 79.2999 40.0066 80.012 41.8134 81.8244C43.6202 83.6799 44.5881 85.1255 44.7172 86.1612C44.7172 87.5421 43.9644 89.5271 42.4587 92.1163C40.953 94.7054 39.856 96 39.1677 96C38.9096 95.8705 38.0062 95.288 36.4575 94.2523C34.9519 93.2598 33.8334 92.5046 33.102 91.9868C32.4567 91.5553 32.1341 91.1022 32.1341 90.6275Z" fill="white"/>
<path d="M100.859 67.4691C99.3534 71.6549 97.9553 74.7403 96.6647 76.7254C95.3741 78.7104 94.3632 79.9402 93.6318 80.4149C92.9005 80.8896 91.8035 81.4074 90.3409 81.9684C88.8782 82.4862 86.6412 83.2414 83.6299 84.2339C80.6616 85.1833 78.8978 85.658 78.3385 85.658C77.9944 85.658 77.8223 85.5716 77.8223 85.399C77.4782 84.9244 79.2635 83.3709 83.1782 80.7386C87.0929 78.1062 89.6096 76.3801 90.7281 75.5602C91.8896 74.7403 93.0511 73.5536 94.2126 72.0002C95.4171 70.4035 96.299 68.6127 96.8583 66.6277C96.256 66.5413 95.6322 66.6708 94.9869 67.016C94.3847 67.3181 93.7824 67.4691 93.1801 67.4691C91.5884 67.426 90.2548 66.9081 89.1794 65.9156C88.1039 64.9231 87.6522 63.8227 87.8243 62.6145C87.9963 61.8809 88.2329 61.0394 88.5341 60.09C88.8782 59.0975 89.5665 57.544 90.599 55.4296C91.6314 53.3151 92.6639 51.5674 93.6964 50.1865C94.7718 48.8056 95.8258 48.1152 96.8583 48.1152C98.6221 48.1152 100.085 48.8703 101.246 50.3807C102.451 51.891 103.053 53.7034 103.053 55.8179C103.053 56.8967 102.988 57.9756 102.859 59.0544C102.73 60.09 102.58 60.9747 102.408 61.7083C102.279 62.3987 102.064 63.3049 101.762 64.4269C101.504 65.5057 101.203 66.5198 100.859 67.4691Z" fill="white"/>
<path d="M100.214 62.7915C100.042 62.1873 99.9556 61.3027 99.9556 60.1376C99.9556 58.843 100.106 57.7858 100.407 56.9659C100.708 56.0597 101.268 55.2613 102.085 54.5709C103.763 53.2763 105.785 51.3776 108.151 48.8748C110.302 46.5014 111.528 44.9479 111.829 44.2143C110.194 43.3944 108.968 42.7471 108.151 42.2724C105.355 40.9347 103.139 40.2658 101.504 40.2658C100.085 40.2658 98.7296 41.021 97.439 42.5313C96.1054 44.0848 95.3096 44.7753 95.0515 44.6026C94.5352 44.4732 94.4062 44.0201 94.6643 43.2433C95.0084 42.3803 95.6968 41.1289 96.7292 39.4891C97.7617 37.8493 98.3854 36.8783 98.6005 36.5763C100.149 34.807 101.827 33.9224 103.634 33.9224C104.795 33.9224 106.645 34.4402 109.183 35.4759C111.678 36.5547 113.937 37.0941 115.959 37.0941C117.981 37.0941 119.809 36.3821 121.444 34.958C121.788 34.7423 122.153 34.656 122.541 34.6991C122.885 34.8717 120.057 35.1738 120.057 35.6053C120.057 35.9937 122.971 36.4036 122.799 36.8352C122.412 37.8708 122.089 38.7339 121.831 39.4243C121.616 40.0716 121.444 40.5679 121.315 40.9131C120.583 42.6392 119.981 43.7396 119.508 44.2143C118.733 44.3869 117.895 44.9263 116.991 45.8325L110.345 53.0821L103.505 60.526L101.698 62.662C101.569 62.7483 101.074 62.7915 100.214 62.7915ZM104.602 20.8934C104.602 19.944 105.398 17.8943 106.989 14.7441C108.624 11.5508 109.678 9.95418 110.151 9.95418C111.098 9.56581 112.474 10.2994 114.281 12.155C116.088 13.9674 117.056 15.3914 117.185 16.4271C117.185 17.808 116.432 19.793 114.926 22.3821C113.421 24.9713 112.324 26.2659 111.635 26.2659C111.377 26.1364 110.474 25.5754 108.925 24.5829C107.419 23.5473 106.301 22.7705 105.57 22.2527C104.924 21.8212 104.602 21.3681 104.602 20.8934Z" fill="white"/>
<path d="M129.905 61.131C129.001 62.253 128.227 63.0513 127.582 63.526C126.721 64.1301 125.839 64.6264 124.936 65.0147C124.076 65.3599 123.108 65.6404 122.032 65.8562C121 66.1151 119.967 66.374 118.935 66.6329L114.676 67.6686C112.955 67.9707 111.901 68.0138 111.514 67.7981C111.514 67.1939 112.224 66.4388 113.644 65.5326C114.934 64.7127 116.246 63.8928 117.58 63.0729C118.913 62.2098 120.247 61.3683 121.581 60.5484C124.979 58.175 127.517 55.9527 129.195 53.8814C130.486 52.2847 131.496 50.8822 132.228 49.674C132.701 48.9835 133.411 47.7968 134.357 46.1139L137.132 40.4177C137.777 39.08 138.401 38.0012 139.003 37.1813C139.563 36.3614 140.079 35.973 140.552 36.0162C140.982 36.2319 141.111 36.6635 140.939 37.3107C140.466 38.7348 140.165 39.6626 140.036 40.0941C139.347 42.3812 139.003 43.9778 139.003 44.884C138.745 45.6608 138.573 46.157 138.487 46.3728C137.455 48.703 136.379 50.9038 135.261 52.9751C134.916 53.795 133.131 56.5137 129.905 61.131Z" fill="white"/>
<path d="M133.389 51.5511C134.25 47.84 135.239 45.0998 136.358 43.3305C137.433 41.5613 138.315 40.5903 139.003 40.4177V43.2658C139.003 46.8906 139.971 49.4151 141.907 50.8391C143.069 51.6158 144.23 51.8748 145.392 51.6158C146.553 51.3569 147.435 50.7528 148.037 49.8034C148.683 48.8541 149.22 47.7537 149.651 46.5023C150.081 45.2077 150.489 44.5604 150.877 44.5604C151.35 44.5604 151.543 45.0135 151.457 45.9197C151.414 47.4732 150.92 49.9976 149.973 53.493C149.07 56.9883 147.822 59.858 146.23 62.1019C144.639 64.3459 142.703 65.5326 140.423 65.662C138.1 65.5757 136.293 64.2596 135.003 61.7136C133.841 59.2107 133.303 55.9743 133.389 52.0042V51.5511ZM126.885 100.108C126.885 99.5474 127.767 97.6055 129.53 94.2827C131.294 90.96 132.37 89.2986 132.757 89.2986C133.488 88.9966 134.542 89.5144 135.919 90.8521C137.338 92.233 138.414 93.4413 139.145 94.4769C140.006 93.0529 140.952 91.4563 141.984 89.687C143.06 87.9177 143.77 87.0331 144.114 87.0331C145.189 87.0331 146.458 87.8099 147.921 89.3633C149.427 90.96 150.223 92.4488 150.309 93.8296C150.309 95.4694 149.513 97.4113 147.921 99.6553C146.372 101.856 145.232 102.956 144.501 102.956C144.028 102.956 143.167 102.331 141.92 101.079C140.672 99.8279 139.575 98.8569 138.629 98.1665C136.306 102.87 134.456 105.222 133.08 105.222C132.735 105.222 132.241 104.941 131.595 104.38C130.993 103.863 130.068 103.086 128.821 102.05C127.53 101.015 126.885 100.367 126.885 100.108Z" fill="white"/>
<path d="M175.677 52.1482C174.988 53.3133 174.515 54.1548 174.257 54.6726C173.526 55.8809 172.773 56.8518 171.999 57.5854C171.095 58.4916 169.912 59.2899 168.449 59.9804C165.309 61.4907 163.051 62.9579 161.674 64.382C160.771 65.2882 159.717 66.9495 158.512 69.3661C156.318 73.8108 154.167 76.7668 152.059 78.2339C149.951 79.7443 146.166 80.8231 140.702 81.4704C140.272 81.5567 139.756 81.5999 139.153 81.5999H137.669C136.895 81.5999 136.508 81.5135 136.508 81.3409C136.508 80.3484 137.82 79.0107 140.444 77.3277C142.509 76.0763 144.058 75.1485 145.09 74.5444C148.187 72.7751 150.467 71.3727 151.93 70.337C153.995 68.8267 155.35 67.3595 155.995 65.9355C158.146 61.5339 159.932 58.47 161.351 56.7439C162.943 54.8452 164.771 53.378 166.836 52.3424C170.149 50.4868 172.063 49.3864 172.579 49.0412L177.742 50.271L175.677 52.1482Z" fill="white"/>
<path d="M179.29 48.1244C178.774 49.0306 178.215 49.9368 177.613 50.843C177.053 51.7061 176.472 52.5476 175.87 53.3675C175.268 54.1874 174.666 54.9425 174.063 55.633C173.504 56.2803 173.009 56.8197 172.579 57.2512C172.321 55.9135 172.149 54.5973 172.063 53.3027C171.977 52.0082 172.149 50.692 172.579 49.3543C173.225 48.9659 173.719 48.6207 174.063 48.3186C174.924 47.5419 176.838 44.9096 179.806 40.4217C179.462 40.0765 178.473 39.6018 176.838 38.9976C175.203 38.3504 173.655 37.9836 172.192 37.8973C170.859 37.8109 169.762 38.0699 168.901 38.674C167.998 39.235 167.202 40.0549 166.514 41.1337C165.782 42.1694 165.158 42.644 164.642 42.5577C164.47 42.4714 164.449 42.1262 164.578 41.5221C164.707 40.8748 164.9 40.2491 165.158 39.6449C166.234 37.1421 167.481 35.2865 168.901 34.0782C170.278 32.8268 171.934 32.2011 173.87 32.2011C175.289 32.2011 177.053 32.5463 179.161 33.2368C180.495 33.7115 181.635 33.9488 182.581 33.9488C184.56 33.9488 186.517 33.2368 188.453 31.8127C188.883 31.8127 189.034 32.0932 188.905 32.6542C188.776 33.2152 188.582 33.8841 188.324 34.6608C188.109 35.3944 187.959 35.8907 187.873 36.1496C187.442 37.4873 187.098 38.2641 186.84 38.4798C186.582 38.6956 185.829 39.2566 184.582 40.1628C183.893 40.6806 183.291 41.2847 182.775 41.9752C182.302 42.6225 181.807 43.4208 181.291 44.3701C180.774 45.2764 180.108 46.5278 179.29 48.1244ZM173.534 18.04C173.534 17.0907 174.33 15.0409 175.922 11.8908C177.556 8.69748 178.61 7.10083 179.083 7.10083C180.03 6.71245 181.407 7.44605 183.213 9.30161C185.02 11.114 185.988 12.5381 186.117 13.5737C186.117 14.9546 185.364 16.9396 183.859 19.5288C182.353 22.1179 181.256 23.4125 180.568 23.4125C180.31 23.2831 179.406 22.7221 177.857 21.7296C176.352 20.6939 175.233 19.9172 174.502 19.3993C173.857 18.9678 173.534 18.5147 173.534 18.04Z" fill="white"/>
<path d="M177.274 88.5694C178.091 87.8358 179.102 87.1886 180.306 86.6276C181.296 86.1097 182.307 85.8724 183.339 85.9156C184.974 86.2176 186.351 86.3687 187.469 86.3687C188.846 86.455 190.05 86.2392 191.083 85.7214C192.072 85.2898 192.868 84.5562 193.47 83.5206C193.728 83.1322 193.986 82.7438 194.245 82.3555C194.546 81.9239 194.911 81.4061 195.342 80.802C195.815 80.1547 196.202 79.831 196.503 79.831C196.89 79.831 197.084 80.1763 197.084 80.8667C197.084 82.5065 196.116 85.2035 194.18 88.9578C193.148 91.1586 192.029 92.971 190.825 94.395C189.061 96.4232 187.039 97.8473 184.759 98.6672C184.157 98.9261 183.232 99.0555 181.984 99.0555C181.726 99.0555 180.909 98.9692 179.532 98.7966C178.543 98.624 177.747 98.5377 177.144 98.5377C175.295 98.5377 173.509 99.2713 171.789 100.738C171.444 101.084 170.821 101.602 169.917 102.292C169.358 102.767 168.885 102.961 168.498 102.875C168.067 102.702 168.089 101.947 168.562 100.609C169.035 99.4007 169.702 98.0846 170.563 96.6606C171.767 94.8913 172.929 93.3162 174.047 91.9353C175.037 90.6408 176.112 89.5188 177.274 88.5694ZM181.991 67.8615C181.991 66.9121 182.787 64.8624 184.378 61.7122C186.013 58.5189 187.067 56.9223 187.54 56.9223C188.487 56.5339 189.863 57.2675 191.67 59.1231C193.477 60.9355 194.445 62.3595 194.574 63.3952C194.574 64.7761 193.821 66.7611 192.315 69.3502C190.81 71.9394 189.713 73.234 189.024 73.234C188.766 73.1045 187.863 72.5435 186.314 71.551C184.808 70.5154 183.69 69.7386 182.959 69.2208C182.313 68.7892 181.991 68.3361 181.991 67.8615Z" fill="white"/>
<path d="M207.473 74.7822C207.387 76.422 207.215 77.9107 206.957 79.2485C206.699 80.5431 206.354 81.665 205.924 82.6144C205.494 83.5206 204.935 84.211 204.246 84.6857C203.601 85.1172 202.805 85.2683 201.859 85.1388C201.902 81.7729 202.246 77.0908 202.891 71.0926C203.58 65.0513 204.591 58.3842 205.924 51.0914C206.613 48.9769 208.011 45.2442 210.119 39.8933C210.334 39.3755 210.549 39.1597 210.764 39.246C211.022 39.3323 211.151 39.5481 211.151 39.8933C211.022 42.5256 210.484 47.5529 209.538 54.9751C208.591 62.3974 208.011 67.4894 207.796 70.2512C207.58 73.0129 207.473 74.5233 207.473 74.7822Z" fill="white"/>
<path d="M207.473 77.0477C207.473 79.8958 208.054 82.0318 209.215 83.4559C210.291 84.923 211.56 85.6566 213.022 85.6566C213.28 85.6135 213.711 84.5347 214.313 82.4202C214.958 80.3489 215.496 79.0974 215.926 78.6659C216.959 78.2775 217.819 78.7306 218.507 80.0252C219.153 81.4061 219.518 82.5281 219.604 83.3911C219.604 86.6276 218.916 89.8209 217.539 92.971C215.604 97.1137 213.001 99.185 209.731 99.185C207.882 99.185 206.29 98.4514 204.956 96.9842C203.623 95.517 202.784 93.8988 202.44 92.1295C202.096 90.274 201.923 87.9437 201.923 85.1388C201.923 83.9737 202.117 82.7438 202.504 81.4493C202.848 80.1547 203.3 78.9896 203.859 77.9539C204.419 76.9182 205.042 76.0983 205.731 75.4942C206.376 74.8901 206.957 74.6743 207.473 74.8469V77.0477Z" fill="white"/>
<path d="M230.703 74.7822C230.617 76.422 230.445 77.9107 230.187 79.2485C229.929 80.5431 229.585 81.665 229.155 82.6144C228.724 83.5206 228.165 84.211 227.477 84.6857C226.832 85.1172 226.036 85.2683 225.089 85.1388C225.132 81.7729 225.476 77.0908 226.122 71.0926C226.81 65.0513 227.821 58.3842 229.155 51.0914C229.843 48.9769 231.241 45.2442 233.349 39.8933C233.564 39.3755 233.779 39.1597 233.994 39.246C234.252 39.3323 234.381 39.5481 234.381 39.8933C234.252 42.5256 233.715 47.5529 232.768 54.9751C231.822 62.3974 231.241 67.4894 231.026 70.2512C230.811 73.0129 230.703 74.5233 230.703 74.7822Z" fill="white"/>
<path d="M230.703 74.8469C230.703 76.4004 230.725 77.5439 230.768 78.2775C230.768 79.3564 231.004 80.7372 231.478 82.4202C231.994 83.7579 232.854 84.8583 234.059 85.7214C235.22 86.5844 236.769 87.0159 238.705 87.0159C241.372 87.0159 243.48 86.2823 245.029 84.8152C247.094 82.8733 248.492 81.7513 249.223 81.4493C249.696 81.2335 250.234 81.1903 250.836 81.3198C251.481 81.4493 252.148 81.4924 252.837 81.4493C253.611 81.4493 254.342 80.5646 255.031 78.7954C255.719 77.0261 256.192 76.0768 256.45 75.9473C256.708 75.7747 257.009 75.7315 257.354 75.8178C258.343 76.1631 259.031 76.3357 259.418 76.3357C260.15 76.3357 260.795 75.8394 261.354 74.8469C261.569 74.5017 261.935 73.5955 262.451 72.1283C262.882 70.8769 263.226 70.2512 263.484 70.2512C263.828 70.2512 264 70.6395 264 71.4163C264 74.3507 263.161 77.1987 261.483 79.9605C259.72 82.7223 257.934 84.1031 256.128 84.1031C254.966 85.7861 254.299 86.7139 254.127 86.8865C252.966 88.2242 251.912 88.8931 250.965 88.8931C250.019 88.7205 249.223 88.6342 248.578 88.6342C247.975 88.6342 247.309 88.8068 246.577 89.152C245.717 89.4972 244.082 91.2665 241.673 94.4598C239.264 97.6099 236.661 99.185 233.865 99.185C230.811 99.185 228.574 97.8257 227.154 95.1071C225.821 92.4316 225.154 89.1304 225.154 85.2035C225.885 82.0102 226.681 79.4211 227.541 77.4361C228.359 75.3647 229.176 74.3291 229.993 74.3291C230.165 74.3291 230.402 74.5017 230.703 74.8469Z" fill="white"/>
<path d="M37.1673 58.6118C40.867 58.6118 44.9968 58.4392 49.5568 58.0939C54.1599 57.7487 58.5478 57.123 62.7207 56.2168C66.9365 55.2675 70.7437 54.0808 74.1423 52.6567C77.5408 51.2327 79.9498 49.9381 81.3695 48.773C82.7891 47.5647 83.9291 46.227 84.7895 44.7598C85.6499 43.2926 86.2091 42.559 86.4672 42.559C86.8114 42.559 86.9404 43.0553 86.8544 44.0478C86.6823 45.4287 86.1231 47.2842 85.1766 49.6145C83.9291 52.592 82.6815 54.9654 81.434 56.7346C80.2294 58.5039 78.7453 60.0142 76.9815 61.2657C74.4864 62.9486 71.6686 64.5021 68.5283 65.9261C65.775 67.0481 62.7637 68.0622 59.4942 68.9684C54.504 70.263 49.5783 71.2123 44.7172 71.8165C39.856 72.3775 35.1454 72.658 30.5854 72.658C25.2941 72.658 21.2503 72.4422 18.454 72.0107C13.851 71.2771 10.5815 69.8962 8.64567 67.868C6.88189 66.2714 6 64.1137 6 61.3951C6 60.3163 6.15057 58.7844 6.4517 56.7994C6.75283 54.8144 7.09699 52.8293 7.48416 50.8443C7.91435 48.8593 8.23699 47.5647 8.45209 46.9606C8.66718 46.3133 8.98983 45.9896 9.42002 45.9896C9.85021 45.9896 10.1083 46.378 10.1944 47.1548C10.3234 47.8884 10.4525 49.0751 10.5815 50.7149C10.7106 52.3547 11.9581 53.8434 14.3242 55.1811C18.9272 57.3819 26.5416 58.5255 37.1673 58.6118ZM32.1341 90.6275C32.1341 89.6781 32.93 87.6068 34.5217 84.4135C36.1564 81.2634 37.2104 79.6883 37.6836 79.6883C38.63 79.2999 40.0066 80.012 41.8134 81.8244C43.6202 83.6799 44.5881 85.1255 44.7172 86.1612C44.7172 87.5421 43.9644 89.5271 42.4587 92.1163C40.953 94.7054 39.856 96 39.1677 96C38.9096 95.8705 38.0062 95.288 36.4575 94.2523C34.9519 93.2598 33.8334 92.5046 33.102 91.9868C32.4567 91.5553 32.1341 91.1022 32.1341 90.6275Z" stroke="#4764E4" stroke-width="12" mask="url(#path-1-outside-1_15_18481)"/>
<path d="M100.859 67.4691C99.3534 71.6549 97.9553 74.7403 96.6647 76.7254C95.3741 78.7104 94.3632 79.9402 93.6318 80.4149C92.9005 80.8896 91.8035 81.4074 90.3409 81.9684C88.8782 82.4862 86.6412 83.2414 83.6299 84.2339C80.6616 85.1833 78.8978 85.658 78.3385 85.658C77.9944 85.658 77.8223 85.5716 77.8223 85.399C77.4782 84.9244 79.2635 83.3709 83.1782 80.7386C87.0929 78.1062 89.6096 76.3801 90.7281 75.5602C91.8896 74.7403 93.0511 73.5536 94.2126 72.0002C95.4171 70.4035 96.299 68.6127 96.8583 66.6277C96.256 66.5413 95.6322 66.6708 94.9869 67.016C94.3847 67.3181 93.7824 67.4691 93.1801 67.4691C91.5884 67.426 90.2548 66.9081 89.1794 65.9156C88.1039 64.9231 87.6522 63.8227 87.8243 62.6145C87.9963 61.8809 88.2329 61.0394 88.5341 60.09C88.8782 59.0975 89.5665 57.544 90.599 55.4296C91.6314 53.3151 92.6639 51.5674 93.6964 50.1865C94.7718 48.8056 95.8258 48.1152 96.8583 48.1152C98.6221 48.1152 100.085 48.8703 101.246 50.3807C102.451 51.891 103.053 53.7034 103.053 55.8179C103.053 56.8967 102.988 57.9756 102.859 59.0544C102.73 60.09 102.58 60.9747 102.408 61.7083C102.279 62.3987 102.064 63.3049 101.762 64.4269C101.504 65.5057 101.203 66.5198 100.859 67.4691Z" stroke="#4764E4" stroke-width="12" mask="url(#path-1-outside-1_15_18481)"/>
<path d="M100.214 62.7915C100.042 62.1873 99.9556 61.3027 99.9556 60.1376C99.9556 58.843 100.106 57.7858 100.407 56.9659C100.708 56.0597 101.268 55.2613 102.085 54.5709C103.763 53.2763 105.785 51.3776 108.151 48.8748C110.302 46.5014 111.528 44.9479 111.829 44.2143C110.194 43.3944 108.968 42.7471 108.151 42.2724C105.355 40.9347 103.139 40.2658 101.504 40.2658C100.085 40.2658 98.7296 41.021 97.439 42.5313C96.1054 44.0848 95.3096 44.7753 95.0515 44.6026C94.5352 44.4732 94.4062 44.0201 94.6643 43.2433C95.0084 42.3803 95.6968 41.1289 96.7292 39.4891C97.7617 37.8493 98.3854 36.8783 98.6005 36.5763C100.149 34.807 101.827 33.9224 103.634 33.9224C104.795 33.9224 106.645 34.4402 109.183 35.4759C111.678 36.5547 113.937 37.0941 115.959 37.0941C117.981 37.0941 119.809 36.3821 121.444 34.958C121.788 34.7423 122.153 34.656 122.541 34.6991C122.885 34.8717 120.057 35.1738 120.057 35.6053C120.057 35.9937 122.971 36.4036 122.799 36.8352C122.412 37.8708 122.089 38.7339 121.831 39.4243C121.616 40.0716 121.444 40.5679 121.315 40.9131C120.583 42.6392 119.981 43.7396 119.508 44.2143C118.733 44.3869 117.895 44.9263 116.991 45.8325L110.345 53.0821L103.505 60.526L101.698 62.662C101.569 62.7483 101.074 62.7915 100.214 62.7915ZM104.602 20.8934C104.602 19.944 105.398 17.8943 106.989 14.7441C108.624 11.5508 109.678 9.95418 110.151 9.95418C111.098 9.56581 112.474 10.2994 114.281 12.155C116.088 13.9674 117.056 15.3914 117.185 16.4271C117.185 17.808 116.432 19.793 114.926 22.3821C113.421 24.9713 112.324 26.2659 111.635 26.2659C111.377 26.1364 110.474 25.5754 108.925 24.5829C107.419 23.5473 106.301 22.7705 105.57 22.2527C104.924 21.8212 104.602 21.3681 104.602 20.8934Z" stroke="#4764E4" stroke-width="12" mask="url(#path-1-outside-1_15_18481)"/>
<path d="M129.905 61.131C129.001 62.253 128.227 63.0513 127.582 63.526C126.721 64.1301 125.839 64.6264 124.936 65.0147C124.076 65.3599 123.108 65.6404 122.032 65.8562C121 66.1151 119.967 66.374 118.935 66.6329L114.676 67.6686C112.955 67.9707 111.901 68.0138 111.514 67.7981C111.514 67.1939 112.224 66.4388 113.644 65.5326C114.934 64.7127 116.246 63.8928 117.58 63.0729C118.913 62.2098 120.247 61.3683 121.581 60.5484C124.979 58.175 127.517 55.9527 129.195 53.8814C130.486 52.2847 131.496 50.8822 132.228 49.674C132.701 48.9835 133.411 47.7968 134.357 46.1139L137.132 40.4177C137.777 39.08 138.401 38.0012 139.003 37.1813C139.563 36.3614 140.079 35.973 140.552 36.0162C140.982 36.2319 141.111 36.6635 140.939 37.3107C140.466 38.7348 140.165 39.6626 140.036 40.0941C139.347 42.3812 139.003 43.9778 139.003 44.884C138.745 45.6608 138.573 46.157 138.487 46.3728C137.455 48.703 136.379 50.9038 135.261 52.9751C134.916 53.795 133.131 56.5137 129.905 61.131Z" stroke="#4764E4" stroke-width="12" mask="url(#path-1-outside-1_15_18481)"/>
<path d="M133.389 51.5511C134.25 47.84 135.239 45.0998 136.358 43.3305C137.433 41.5613 138.315 40.5903 139.003 40.4177V43.2658C139.003 46.8906 139.971 49.4151 141.907 50.8391C143.069 51.6158 144.23 51.8748 145.392 51.6158C146.553 51.3569 147.435 50.7528 148.037 49.8034C148.683 48.8541 149.22 47.7537 149.651 46.5023C150.081 45.2077 150.489 44.5604 150.877 44.5604C151.35 44.5604 151.543 45.0135 151.457 45.9197C151.414 47.4732 150.92 49.9976 149.973 53.493C149.07 56.9883 147.822 59.858 146.23 62.1019C144.639 64.3459 142.703 65.5326 140.423 65.662C138.1 65.5757 136.293 64.2596 135.003 61.7136C133.841 59.2107 133.303 55.9743 133.389 52.0042V51.5511ZM126.885 100.108C126.885 99.5474 127.767 97.6055 129.53 94.2827C131.294 90.96 132.37 89.2986 132.757 89.2986C133.488 88.9966 134.542 89.5144 135.919 90.8521C137.338 92.233 138.414 93.4413 139.145 94.4769C140.006 93.0529 140.952 91.4563 141.984 89.687C143.06 87.9177 143.77 87.0331 144.114 87.0331C145.189 87.0331 146.458 87.8099 147.921 89.3633C149.427 90.96 150.223 92.4488 150.309 93.8296C150.309 95.4694 149.513 97.4113 147.921 99.6553C146.372 101.856 145.232 102.956 144.501 102.956C144.028 102.956 143.167 102.331 141.92 101.079C140.672 99.8279 139.575 98.8569 138.629 98.1665C136.306 102.87 134.456 105.222 133.08 105.222C132.735 105.222 132.241 104.941 131.595 104.38C130.993 103.863 130.068 103.086 128.821 102.05C127.53 101.015 126.885 100.367 126.885 100.108Z" stroke="#4764E4" stroke-width="12" mask="url(#path-1-outside-1_15_18481)"/>
<path d="M175.677 52.1482C174.988 53.3133 174.515 54.1548 174.257 54.6726C173.526 55.8809 172.773 56.8518 171.999 57.5854C171.095 58.4916 169.912 59.2899 168.449 59.9804C165.309 61.4907 163.051 62.9579 161.674 64.382C160.771 65.2882 159.717 66.9495 158.512 69.3661C156.318 73.8108 154.167 76.7668 152.059 78.2339C149.951 79.7443 146.166 80.8231 140.702 81.4704C140.272 81.5567 139.756 81.5999 139.153 81.5999H137.669C136.895 81.5999 136.508 81.5135 136.508 81.3409C136.508 80.3484 137.82 79.0107 140.444 77.3277C142.509 76.0763 144.058 75.1485 145.09 74.5444C148.187 72.7751 150.467 71.3727 151.93 70.337C153.995 68.8267 155.35 67.3595 155.995 65.9355C158.146 61.5339 159.932 58.47 161.351 56.7439C162.943 54.8452 164.771 53.378 166.836 52.3424C170.149 50.4868 172.063 49.3864 172.579 49.0412L177.742 50.271L175.677 52.1482Z" stroke="#4764E4" stroke-width="12" mask="url(#path-1-outside-1_15_18481)"/>
<path d="M179.29 48.1244C178.774 49.0306 178.215 49.9368 177.613 50.843C177.053 51.7061 176.472 52.5476 175.87 53.3675C175.268 54.1874 174.666 54.9425 174.063 55.633C173.504 56.2803 173.009 56.8197 172.579 57.2512C172.321 55.9135 172.149 54.5973 172.063 53.3027C171.977 52.0082 172.149 50.692 172.579 49.3543C173.225 48.9659 173.719 48.6207 174.063 48.3186C174.924 47.5419 176.838 44.9096 179.806 40.4217C179.462 40.0765 178.473 39.6018 176.838 38.9976C175.203 38.3504 173.655 37.9836 172.192 37.8973C170.859 37.8109 169.762 38.0699 168.901 38.674C167.998 39.235 167.202 40.0549 166.514 41.1337C165.782 42.1694 165.158 42.644 164.642 42.5577C164.47 42.4714 164.449 42.1262 164.578 41.5221C164.707 40.8748 164.9 40.2491 165.158 39.6449C166.234 37.1421 167.481 35.2865 168.901 34.0782C170.278 32.8268 171.934 32.2011 173.87 32.2011C175.289 32.2011 177.053 32.5463 179.161 33.2368C180.495 33.7115 181.635 33.9488 182.581 33.9488C184.56 33.9488 186.517 33.2368 188.453 31.8127C188.883 31.8127 189.034 32.0932 188.905 32.6542C188.776 33.2152 188.582 33.8841 188.324 34.6608C188.109 35.3944 187.959 35.8907 187.873 36.1496C187.442 37.4873 187.098 38.2641 186.84 38.4798C186.582 38.6956 185.829 39.2566 184.582 40.1628C183.893 40.6806 183.291 41.2847 182.775 41.9752C182.302 42.6225 181.807 43.4208 181.291 44.3701C180.774 45.2764 180.108 46.5278 179.29 48.1244ZM173.534 18.04C173.534 17.0907 174.33 15.0409 175.922 11.8908C177.556 8.69748 178.61 7.10083 179.083 7.10083C180.03 6.71245 181.407 7.44605 183.213 9.30161C185.02 11.114 185.988 12.5381 186.117 13.5737C186.117 14.9546 185.364 16.9396 183.859 19.5288C182.353 22.1179 181.256 23.4125 180.568 23.4125C180.31 23.2831 179.406 22.7221 177.857 21.7296C176.352 20.6939 175.233 19.9172 174.502 19.3993C173.857 18.9678 173.534 18.5147 173.534 18.04Z" stroke="#4764E4" stroke-width="12" mask="url(#path-1-outside-1_15_18481)"/>
<path d="M177.274 88.5694C178.091 87.8358 179.102 87.1886 180.306 86.6276C181.296 86.1097 182.307 85.8724 183.339 85.9156C184.974 86.2176 186.351 86.3687 187.469 86.3687C188.846 86.455 190.05 86.2392 191.083 85.7214C192.072 85.2898 192.868 84.5562 193.47 83.5206C193.728 83.1322 193.986 82.7438 194.245 82.3555C194.546 81.9239 194.911 81.4061 195.342 80.802C195.815 80.1547 196.202 79.831 196.503 79.831C196.89 79.831 197.084 80.1763 197.084 80.8667C197.084 82.5065 196.116 85.2035 194.18 88.9578C193.148 91.1586 192.029 92.971 190.825 94.395C189.061 96.4232 187.039 97.8473 184.759 98.6672C184.157 98.9261 183.232 99.0555 181.984 99.0555C181.726 99.0555 180.909 98.9692 179.532 98.7966C178.543 98.624 177.747 98.5377 177.144 98.5377C175.295 98.5377 173.509 99.2713 171.789 100.738C171.444 101.084 170.821 101.602 169.917 102.292C169.358 102.767 168.885 102.961 168.498 102.875C168.067 102.702 168.089 101.947 168.562 100.609C169.035 99.4007 169.702 98.0846 170.563 96.6606C171.767 94.8913 172.929 93.3162 174.047 91.9353C175.037 90.6408 176.112 89.5188 177.274 88.5694ZM181.991 67.8615C181.991 66.9121 182.787 64.8624 184.378 61.7122C186.013 58.5189 187.067 56.9223 187.54 56.9223C188.487 56.5339 189.863 57.2675 191.67 59.1231C193.477 60.9355 194.445 62.3595 194.574 63.3952C194.574 64.7761 193.821 66.7611 192.315 69.3502C190.81 71.9394 189.713 73.234 189.024 73.234C188.766 73.1045 187.863 72.5435 186.314 71.551C184.808 70.5154 183.69 69.7386 182.959 69.2208C182.313 68.7892 181.991 68.3361 181.991 67.8615Z" stroke="#4764E4" stroke-width="12" mask="url(#path-1-outside-1_15_18481)"/>
<path d="M207.473 74.7822C207.387 76.422 207.215 77.9107 206.957 79.2485C206.699 80.5431 206.354 81.665 205.924 82.6144C205.494 83.5206 204.935 84.211 204.246 84.6857C203.601 85.1172 202.805 85.2683 201.859 85.1388C201.902 81.7729 202.246 77.0908 202.891 71.0926C203.58 65.0513 204.591 58.3842 205.924 51.0914C206.613 48.9769 208.011 45.2442 210.119 39.8933C210.334 39.3755 210.549 39.1597 210.764 39.246C211.022 39.3323 211.151 39.5481 211.151 39.8933C211.022 42.5256 210.484 47.5529 209.538 54.9751C208.591 62.3974 208.011 67.4894 207.796 70.2512C207.58 73.0129 207.473 74.5233 207.473 74.7822Z" stroke="#4764E4" stroke-width="12" mask="url(#path-1-outside-1_15_18481)"/>
<path d="M207.473 77.0477C207.473 79.8958 208.054 82.0318 209.215 83.4559C210.291 84.923 211.56 85.6566 213.022 85.6566C213.28 85.6135 213.711 84.5347 214.313 82.4202C214.958 80.3489 215.496 79.0974 215.926 78.6659C216.959 78.2775 217.819 78.7306 218.507 80.0252C219.153 81.4061 219.518 82.5281 219.604 83.3911C219.604 86.6276 218.916 89.8209 217.539 92.971C215.604 97.1137 213.001 99.185 209.731 99.185C207.882 99.185 206.29 98.4514 204.956 96.9842C203.623 95.517 202.784 93.8988 202.44 92.1295C202.096 90.274 201.923 87.9437 201.923 85.1388C201.923 83.9737 202.117 82.7438 202.504 81.4493C202.848 80.1547 203.3 78.9896 203.859 77.9539C204.419 76.9182 205.042 76.0983 205.731 75.4942C206.376 74.8901 206.957 74.6743 207.473 74.8469V77.0477Z" stroke="#4764E4" stroke-width="12" mask="url(#path-1-outside-1_15_18481)"/>
<path d="M230.703 74.7822C230.617 76.422 230.445 77.9107 230.187 79.2485C229.929 80.5431 229.585 81.665 229.155 82.6144C228.724 83.5206 228.165 84.211 227.477 84.6857C226.832 85.1172 226.036 85.2683 225.089 85.1388C225.132 81.7729 225.476 77.0908 226.122 71.0926C226.81 65.0513 227.821 58.3842 229.155 51.0914C229.843 48.9769 231.241 45.2442 233.349 39.8933C233.564 39.3755 233.779 39.1597 233.994 39.246C234.252 39.3323 234.381 39.5481 234.381 39.8933C234.252 42.5256 233.715 47.5529 232.768 54.9751C231.822 62.3974 231.241 67.4894 231.026 70.2512C230.811 73.0129 230.703 74.5233 230.703 74.7822Z" stroke="#4764E4" stroke-width="12" mask="url(#path-1-outside-1_15_18481)"/>
<path d="M230.703 74.8469C230.703 76.4004 230.725 77.5439 230.768 78.2775C230.768 79.3564 231.004 80.7372 231.478 82.4202C231.994 83.7579 232.854 84.8583 234.059 85.7214C235.22 86.5844 236.769 87.0159 238.705 87.0159C241.372 87.0159 243.48 86.2823 245.029 84.8152C247.094 82.8733 248.492 81.7513 249.223 81.4493C249.696 81.2335 250.234 81.1903 250.836 81.3198C251.481 81.4493 252.148 81.4924 252.837 81.4493C253.611 81.4493 254.342 80.5646 255.031 78.7954C255.719 77.0261 256.192 76.0768 256.45 75.9473C256.708 75.7747 257.009 75.7315 257.354 75.8178C258.343 76.1631 259.031 76.3357 259.418 76.3357C260.15 76.3357 260.795 75.8394 261.354 74.8469C261.569 74.5017 261.935 73.5955 262.451 72.1283C262.882 70.8769 263.226 70.2512 263.484 70.2512C263.828 70.2512 264 70.6395 264 71.4163C264 74.3507 263.161 77.1987 261.483 79.9605C259.72 82.7223 257.934 84.1031 256.128 84.1031C254.966 85.7861 254.299 86.7139 254.127 86.8865C252.966 88.2242 251.912 88.8931 250.965 88.8931C250.019 88.7205 249.223 88.6342 248.578 88.6342C247.975 88.6342 247.309 88.8068 246.577 89.152C245.717 89.4972 244.082 91.2665 241.673 94.4598C239.264 97.6099 236.661 99.185 233.865 99.185C230.811 99.185 228.574 97.8257 227.154 95.1071C225.821 92.4316 225.154 89.1304 225.154 85.2035C225.885 82.0102 226.681 79.4211 227.541 77.4361C228.359 75.3647 229.176 74.3291 229.993 74.3291C230.165 74.3291 230.402 74.5017 230.703 74.8469Z" stroke="#4764E4" stroke-width="12" mask="url(#path-1-outside-1_15_18481)"/>
</svg>
