<svg width="88" height="134" viewBox="0 0 88 134" fill="none" xmlns="http://www.w3.org/2000/svg">
<path d="M81.5854 0.564096H0.908203C1.56559 0.564096 5.90567 0.75192 5.90567 4.97126V99.1115C5.87884 99.6951 5.85871 100.279 5.85871 100.869C5.85871 123.099 24.1045 141.117 46.6099 141.117C69.1153 141.117 86.1469 124.273 87.3007 103.069H87.3611V4.97126C87.3611 0.409811 81.5788 0.564096 81.5788 0.564096" fill="#307205"/>
<path d="M30.2759 137.743C35.2801 139.91 40.8075 141.117 46.6166 141.117C52.4257 141.117 57.7049 139.964 62.6152 137.884V0.564453H30.2759V137.743Z" fill="white"/>
<path d="M30.2758 0.564453H0.914795C1.57218 0.564453 5.91227 0.752277 5.91227 4.97162V99.1119C5.88544 99.6954 5.86531 100.279 5.86531 100.869C5.86531 117.358 15.9072 131.525 30.2758 137.743V0.564453Z" fill="#FF0000"/>
<path fill-rule="evenodd" clip-rule="evenodd" d="M40.8544 59.7559C34.6159 61.6341 32.5364 70.1063 39.2109 74.4464C35.7697 70.0661 35.6892 64.2301 40.8544 59.7559Z" fill="#1D1D1B"/>
<path d="M40.8544 59.7559C34.6159 61.6341 32.5364 70.1063 39.2109 74.4464C35.7697 70.0661 35.6892 64.2301 40.8544 59.7559Z" stroke="#1D1D1B" stroke-width="0.36" stroke-miterlimit="2.61"/>
<path fill-rule="evenodd" clip-rule="evenodd" d="M49.7358 59.7559C55.9743 61.6341 58.0538 70.1063 51.3793 74.4464C54.8205 70.0661 54.901 64.2301 49.7358 59.7559Z" fill="#1D1D1B"/>
<path d="M49.7358 59.7559C55.9743 61.6341 58.0538 70.1063 51.3793 74.4464C54.8205 70.0661 54.901 64.2301 49.7358 59.7559Z" stroke="#1D1D1B" stroke-width="0.36" stroke-miterlimit="2.61"/>
<path fill-rule="evenodd" clip-rule="evenodd" d="M44.2152 74.1172L44.0341 60.5603L45.275 59.5742L46.4825 60.453L46.3349 74.1172C50.9098 70.3205 51.5068 64.8199 48.5284 60.1578C53.3649 64.3906 52.8953 71.5749 47.0661 75.5795C48.4211 76.0893 49.8432 76.2168 51.3055 76.0893C49.917 76.787 48.2802 76.9614 46.3752 76.5656L45.2817 77.8535L44.2152 76.6059C42.3973 76.8742 40.7471 76.6931 39.2445 76.1296C40.841 76.2168 42.2631 76.0424 43.484 75.5863C37.9566 72.5207 36.8833 64.8668 42.0216 60.131C38.7817 65.1083 40.2038 71.159 44.2152 74.1239" fill="#1D1D1B"/>
<path d="M44.2152 74.1172L44.0341 60.5603L45.275 59.5742L46.4825 60.453L46.3349 74.1172C50.9098 70.3205 51.5068 64.8199 48.5284 60.1578C53.3649 64.3906 52.8953 71.5749 47.0661 75.5795C48.4211 76.0893 49.8432 76.2168 51.3055 76.0894C49.917 76.787 48.2802 76.9614 46.3752 76.5656L45.2817 77.8536L44.2152 76.6059C42.3973 76.8742 40.7471 76.6931 39.2445 76.1296C40.841 76.2168 42.2631 76.0424 43.484 75.5862C37.9566 72.5207 36.8833 64.8668 42.0216 60.131C38.7817 65.1083 40.2038 71.159 44.2152 74.1239V74.1172Z" stroke="#1D1D1B" stroke-width="0.36" stroke-miterlimit="2.61"/>
<path fill-rule="evenodd" clip-rule="evenodd" d="M47.757 57.7705C47.0258 58.7633 46.241 58.8773 45.2817 58.2132C44.3493 58.8572 43.5041 58.7633 42.7729 57.7772C42.8266 59.5079 44.1347 60.0378 45.275 59.206C46.5294 60.0982 47.7436 59.4207 47.757 57.7705Z" fill="#1D1D1B"/>
<path d="M47.757 57.7705C47.0258 58.7633 46.241 58.8773 45.2817 58.2132C44.3493 58.8572 43.5041 58.7633 42.7729 57.7772C42.8266 59.5079 44.1347 60.0378 45.275 59.206C46.5294 60.0982 47.7436 59.4207 47.757 57.7705Z" stroke="#1D1D1B" stroke-width="0.36" stroke-miterlimit="2.61"/>
<path fill-rule="evenodd" clip-rule="evenodd" d="M70.3429 88.325H69.2427V76.1902H70.3429V88.325ZM70.3429 125.3H69.2427V113.171H70.3429V125.3ZM70.3429 130.579H64.7014V125.816H67.0828V123.482H65.8015V125.333H64.7014V122.375H68.1829V125.816H70.3429V126.923H65.8015V127.647H70.3429V128.754H65.8015V129.472H70.3429V130.579ZM64.7014 116.821H67.0828V114.272H64.7014V113.165H68.1829V117.927H65.8015V120.188H67.0828V118.565H68.1829V121.295H64.7014V116.821ZM65.8015 116.096H64.7014V114.989H65.8015V116.096ZM70.3429 106.806H69.2427V94.6708H70.3429V106.806ZM70.3429 112.085H64.7014V107.322H67.0828V104.988H65.8015V106.839H64.7014V103.881H68.1829V107.322H70.3429V108.429H65.8015V109.153H70.3429V110.26H65.8015V110.985H70.3429V112.091V112.085ZM64.7014 98.3266H67.0828V95.7776H64.7014V94.6708H68.1829V99.4335H65.8015V101.694H67.0828V100.071H68.1829V102.801H64.7014V98.3266ZM65.8015 97.6022H64.7014V96.4953H65.8015V97.6022ZM70.3429 14.3692H69.2427V2.23438H70.3429V14.3625V14.3692ZM70.3429 19.6484H64.7014V14.8857H67.0828V12.5513H65.8015V14.4027H64.7014V11.4445H68.1829V14.8857H70.3429V15.9925H65.8015V16.7103H70.3429V17.8171H65.8015V18.5348H70.3429V19.6417V19.6484ZM64.7014 5.89024H67.0828V3.3412H64.7014V2.23438H68.1829V6.99707H65.8015V9.25766H67.0828V7.63433H68.1829V10.3645H64.7014V5.89024ZM65.8015 5.16578H64.7014V4.05895H65.8015V5.16578ZM70.3429 32.8497H69.2427V20.7149H70.3429V32.8497ZM70.3429 38.1289H64.7014V33.3663H67.0828V31.0319H65.8015V32.8833H64.7014V29.925H68.1829V33.3663H70.3429V34.4731H65.8015V35.1975H70.3429V36.3044H65.8015V37.0288H70.3429V38.1357V38.1289ZM64.7014 24.3708H67.0828V21.8218H64.7014V20.7149H68.1829V25.4776H65.8015V27.7382H67.0828V26.1149H68.1829V28.8451H64.7014V24.3708ZM65.8015 23.6464H64.7014V22.5395H65.8015V23.6464ZM70.3429 51.3303H69.2427V39.2022H70.3429V51.3303ZM70.3429 56.6095H64.7014V51.8468H67.0828V49.5124H65.8015V51.3638H64.7014V48.4056H68.1829V51.8401H70.3429V52.9469H65.8015V53.6647H70.3429V54.7715H65.8015V55.496H70.3429V56.6028V56.6095ZM64.7014 42.8514H67.0828V40.3023H64.7014V39.1955H68.1829V43.9582H65.8015V46.2188H67.0828V44.5955H68.1829V47.3256H64.7014V42.8514ZM65.8015 42.1269H64.7014V41.0201H65.8015V42.1269ZM70.3429 69.8109H69.2427V57.6761H70.3429V69.8109ZM70.3429 75.0901H64.7081V70.3274H67.0895V67.993H65.8082V69.8444H64.7081V66.8862H68.1896V70.3274H70.3496V71.4342H65.8082V72.1587H70.3496V73.2655H65.8082V73.99H70.3496V75.0968L70.3429 75.0901ZM64.7014 61.332H67.0828V58.7829H64.7014V57.6761H68.1829V62.4388H65.8015V64.6994H67.0828V63.076H68.1829V65.8062H64.7014V61.332ZM65.8015 60.6075H64.7014V59.5007H65.8015V60.6075ZM70.3429 93.5774H64.7014V88.8147H67.0828V86.4803H65.8015V88.3317H64.7014V85.3735H68.1829V88.8147H70.3429V89.9215H65.8015V90.646H70.3429V91.7528H65.8015V92.4772H70.3429V93.5841V93.5774ZM64.7014 79.8192H67.0828V77.2702H64.7014V76.1634H68.1829V80.926H65.8015V83.1867H67.0828V81.5633H68.1829V84.2935H64.7014V79.8192ZM65.8015 79.0948H64.7014V77.9879H65.8015V79.0948Z" fill="white"/>
<path fill-rule="evenodd" clip-rule="evenodd" d="M28.1829 88.325H27.0828V76.1902H28.1829V88.325ZM28.1829 125.3H27.0828V113.171H28.1829V125.3ZM28.1829 130.579H22.5415V125.816H24.9229V123.482H23.6416V125.333H22.5415V122.375H26.023V125.816H28.1829V126.923H23.6416V127.647H28.1829V128.754H23.6416V129.472H28.1829V130.579ZM22.5415 116.821H24.9229V114.272H22.5415V113.165H26.023V117.927H23.6416V120.188H24.9229V118.565H26.023V121.295H22.5415V116.821ZM23.6416 116.096H22.5415V114.989H23.6416V116.096ZM28.1829 106.806H27.0828V94.6708H28.1829V106.806ZM28.1829 112.085H22.5415V107.322H24.9229V104.988H23.6416V106.839H22.5415V103.881H26.023V107.322H28.1829V108.429H23.6416V109.153H28.1829V110.26H23.6416V110.985H28.1829V112.091V112.085ZM22.5415 98.3266H24.9229V95.7776H22.5415V94.6708H26.023V99.4335H23.6416V101.694H24.9229V100.071H26.023V102.801H22.5415V98.3266ZM23.6416 97.6022H22.5415V96.4953H23.6416V97.6022ZM28.1829 14.3692H27.0828V2.23438H28.1829V14.3692ZM28.1829 19.6484H22.5415V14.8857H24.9229V12.5513H23.6416V14.4027H22.5415V11.4445H26.023V14.8857H28.1829V15.9925H23.6416V16.7103H28.1829V17.8171H23.6416V18.5348H28.1829V19.6417V19.6484ZM22.5415 5.89024H24.9229V3.3412H22.5415V2.23438H26.023V6.99707H23.6416V9.25766H24.9229V7.63433H26.023V10.3645H22.5415V5.89024ZM23.6416 5.16578H22.5415V4.05895H23.6416V5.16578ZM28.1829 32.8497H27.0828V20.7149H28.1829V32.8497ZM28.1829 38.1289H22.5415V33.3663H24.9229V31.0319H23.6416V32.8833H22.5415V29.925H26.023V33.3663H28.1829V34.4731H23.6416V35.1975H28.1829V36.3044H23.6416V37.0288H28.1829V38.1357V38.1289ZM22.5415 24.3708H24.9229V21.8218H22.5415V20.7149H26.023V25.4776H23.6416V27.7382H24.9229V26.1149H26.023V28.8451H22.5415V24.3708ZM23.6416 23.6464H22.5415V22.5395H23.6416V23.6464ZM28.1829 51.3303H27.0828V39.2022H28.1829V51.3303ZM28.1829 56.6095H22.5415V51.8468H24.9229V49.5124H23.6416V51.3638H22.5415V48.4056H26.023V51.8401H28.1829V52.9469H23.6416V53.6647H28.1829V54.7715H23.6416V55.496H28.1829V56.6028V56.6095ZM22.5415 42.8514H24.9296V40.3023H22.5482V39.1955H26.0297V43.9582H23.6483V46.2188H24.9296V44.5955H26.0297V47.3256H22.5482V42.8514H22.5415ZM23.6416 42.1269H22.5415V41.0201H23.6416V42.1269ZM28.1829 69.8109H27.0828V57.6761H28.1829V69.8109ZM28.1829 75.0901H22.5415V70.3274H24.9229V67.993H23.6416V69.8444H22.5415V66.8862H26.023V70.3274H28.1829V71.4342H23.6416V72.1587H28.1829V73.2655H23.6416V73.99H28.1829V75.0968V75.0901ZM22.5415 61.332H24.9229V58.7829H22.5415V57.6761H26.023V62.4388H23.6416V64.6994H24.9229V63.076H26.023V65.8062H22.5415V61.332ZM23.6416 60.6075H22.5415V59.5007H23.6416V60.6075ZM28.1829 93.5774H22.5415V88.8147H24.9229V86.4803H23.6416V88.3317H22.5415V85.3735H26.023V88.8147H28.1829V89.9215H23.6416V90.646H28.1829V91.7528H23.6416V92.4772H28.1829V93.5841V93.5774ZM22.5415 79.8192H24.9229V77.2702H22.5415V76.1634H26.023V80.926H23.6416V83.1867H24.9229V81.5633H26.023V84.2935H22.5415V79.8192ZM23.6416 79.0948H22.5415V77.9879H23.6416V79.0948Z" fill="white"/>
<g style="mix-blend-mode:multiply">
<mask id="mask0_125_271" style="mask-type:luminance" maskUnits="userSpaceOnUse" x="0" y="0" width="88" height="142">
<path d="M87.3678 0.564453H0.908203V141.117H87.3678V0.564453Z" fill="white"/>
</mask>
<g mask="url(#mask0_125_271)">
<mask id="mask1_125_271" style="mask-type:luminance" maskUnits="userSpaceOnUse" x="0" y="0" width="88" height="142">
<path d="M81.5854 0.565073H0.908203C1.56559 0.565073 5.90567 0.752897 5.90567 4.97224V99.1125C5.87884 99.6961 5.85871 100.28 5.85871 100.87C5.85871 123.1 24.1045 141.118 46.6099 141.118C69.1153 141.118 86.1469 124.274 87.3007 103.07H87.3611V4.97224C87.3611 0.410788 81.5788 0.565073 81.5788 0.565073" fill="white"/>
</mask>
<g mask="url(#mask1_125_271)">
<path d="M87.3678 0.411133H0.908203V141.118H87.3678V0.411133Z" fill="url(#paint0_linear_125_271)"/>
</g>
</g>
</g>
<defs>
<linearGradient id="paint0_linear_125_271" x1="43.4066" y1="3.29524" x2="43.4066" y2="143.874" gradientUnits="userSpaceOnUse">
<stop stop-color="#FCFCFC"/>
<stop offset="0.02" stop-color="#C6C6C6"/>
<stop offset="0.04" stop-color="#A4A4A4"/>
<stop offset="0.05" stop-color="#989898"/>
<stop offset="0.09" stop-color="#ADADAD"/>
<stop offset="0.16" stop-color="#CBCBCB"/>
<stop offset="0.23" stop-color="#E2E2E2"/>
<stop offset="0.31" stop-color="#F2F2F2"/>
<stop offset="0.4" stop-color="#FBFBFB"/>
<stop offset="0.51" stop-color="white"/>
<stop offset="0.64" stop-color="#F1F1F1"/>
<stop offset="0.89" stop-color="#CDCDCD"/>
<stop offset="0.91" stop-color="#CCCCCC"/>
<stop offset="1" stop-color="#CCCCCC"/>
</linearGradient>
</defs>
</svg>
